{
  "source": "C:\\Users\\Peter\\Desktop\\stuff\\MIUN\\quantitative_research\\video_compression\\videos\\BVI-HD\\BVI-HD_CDVL_videos\\ORIG\\FishAndRock_1920x1080_30fps.mp4",
  "output": "C:\\Users\\Peter\\Desktop\\stuff\\MIUN\\quantitative_research\\video_compression\\compressed_videos\\BVI-HD\\vp9\\1.5\\FishAndRock_1920x1080_30fps_vp9.webm",
  "codec": "vp9",
  "ok": "Input #0, mov,mp4,m4a,3gp,3g2,mj2, from 'C:\\Users\\Peter\\Desktop\\stuff\\MIUN\\quantitative_research\\video_compression\\videos\\BVI-HD\\BVI-HD_CDVL_videos\\ORIG\\FishAndRock_1920x1080_30fps.mp4':\n  Metadata:\n    major_brand     : isom\n    minor_version   : 512\n    compatible_brands: isomiso2avc1mp41\n    encoder         : Lavf54.28.101\n  Duration: 00:00:05.00, start: 0.000000, bitrate: 251564 kb/s\n  Stream #0:0[0x1](und): Video: h264 (High 4:4:4 Predictive) (avc1 / 0x31637661), yuv420p(progressive), 1920x1080, 251561 kb/s, 30 fps, 30 tbr, 30 tbn (default)\n    Metadata:\n      handler_name    : VideoHandler\n      vendor_id       : [0][0][0][0]\n[out#0/webm @ 000002659bdc9240] Codec AVOption b:a (set bitrate (in bits/s)) has not been used for any stream. The most likely reason is either wrong type (e.g. a video option with no video streams) or that it is a private option of some decoder which was not actually used for any stream.\nStream mapping:\n  Stream #0:0 -> #0:0 (h264 (native) -> vp9 (libvpx-vp9))\nPress [q] to stop, [?] for help\n[libvpx-vp9 @ 000002659c8604c0] v1.15.2-100-g40561f514\nOutput #0, webm, to 'C:\\Users\\Peter\\Desktop\\stuff\\MIUN\\quantitative_research\\video_compression\\compressed_videos\\BVI-HD\\vp9\\1.5\\FishAndRock_1920x1080_30fps_vp9.webm':\n  Metadata:\n    major_brand     : isom\n    minor_version   : 512\n    compatible_brands: isomiso2avc1mp41\n    encoder         : Lavf62.3.100\n  Stream #0:0(und): Video: vp9, yuv420p(tv, progressive), 1920x1080, q=2-31, 1500 kb/s, 30 fps, 1k tbn (default)\n    Metadata:\n      encoder         : Lavc62.11.100 libvpx-vp9\n      handler_name    : VideoHandler\n      vendor_id       : [0][0][0][0]\n    Side data:\n      cpb: bitrate max/min/avg: 0/0/0 buffer size: 1500000 vbv_delay: N/A\nframe=    0 fps=0.0 q=0.0 size=       0KiB time=N/A bitrate=N/A speed=N/A elapsed=0:00:00.51    \nframe=    6 fps=5.2 q=51.0 size=       1KiB time=00:00:00.20 bitrate=  25.4kbits/s speed=0.174x elapsed=0:00:01.14    \nframe=   12 fps=7.1 q=49.0 size=       1KiB time=00:00:00.40 bitrate=  12.7kbits/s speed=0.235x elapsed=0:00:01.69    \nframe=   18 fps=8.0 q=47.0 size=       1KiB time=00:00:00.60 bitrate=   8.5kbits/s speed=0.267x elapsed=0:00:02.24    \nframe=   23 fps=8.3 q=44.0 size=       1KiB time=00:00:00.76 bitrate=   6.6kbits/s speed=0.277x elapsed=0:00:02.76    \nframe=   29 fps=8.8 q=44.0 size=       1KiB time=00:00:00.96 bitrate=   5.2kbits/s speed=0.293x elapsed=0:00:03.29    \nframe=   34 fps=8.9 q=41.0 size=       1KiB time=00:00:01.13 bitrate=   4.5kbits/s speed=0.297x elapsed=0:00:03.81    \nframe=   40 fps=9.2 q=43.0 size=       1KiB time=00:00:01.33 bitrate=   3.8kbits/s speed=0.307x elapsed=0:00:04.33    \nframe=   44 fps=9.0 q=41.0 size=       1KiB time=00:00:01.46 bitrate=   3.5kbits/s speed=0.301x elapsed=0:00:04.86    \nframe=   49 fps=9.1 q=39.0 size=       1KiB time=00:00:01.63 bitrate=   3.1kbits/s speed=0.304x elapsed=0:00:05.37    \nframe=   53 fps=9.0 q=38.0 size=       1KiB time=00:00:01.76 bitrate=   2.9kbits/s speed= 0.3x elapsed=0:00:05.89    \nframe=   58 fps=9.0 q=38.0 size=       1KiB time=00:00:01.93 bitrate=   2.6kbits/s speed= 0.3x elapsed=0:00:06.43    \nframe=   62 fps=8.9 q=43.0 size=       1KiB time=00:00:02.03 bitrate=   2.5kbits/s speed=0.292x elapsed=0:00:06.95    \nframe=   65 fps=8.6 q=39.0 size=       1KiB time=00:00:02.13 bitrate=   2.4kbits/s speed=0.282x elapsed=0:00:07.56    \nframe=   67 fps=8.2 q=41.0 size=       1KiB time=00:00:02.23 bitrate=   2.3kbits/s speed=0.275x elapsed=0:00:08.12    \nframe=   69 fps=8.0 q=41.0 size=       1KiB time=00:00:02.30 bitrate=   2.2kbits/s speed=0.265x elapsed=0:00:08.67    \nframe=   71 fps=7.7 q=32.0 size=       1KiB time=00:00:02.36 bitrate=   2.1kbits/s speed=0.257x elapsed=0:00:09.20    \nframe=   74 fps=7.6 q=37.0 size=       1KiB time=00:00:02.46 bitrate=   2.1kbits/s speed=0.254x elapsed=0:00:09.71    \nframe=   78 fps=7.6 q=41.0 size=       1KiB time=00:00:02.60 bitrate=   2.0kbits/s speed=0.254x elapsed=0:00:10.24    \nframe=   81 fps=7.5 q=32.0 size=       1KiB time=00:00:02.70 bitrate=   1.9kbits/s speed=0.25x elapsed=0:00:10.77    \nframe=   85 fps=7.5 q=38.0 size=       1KiB time=00:00:02.83 bitrate=   1.8kbits/s speed=0.251x elapsed=0:00:11.30    \nframe=   89 fps=7.5 q=41.0 size=       1KiB time=00:00:02.93 bitrate=   1.7kbits/s speed=0.248x elapsed=0:00:11.83    \nframe=   91 fps=7.3 q=33.0 size=       1KiB time=00:00:03.03 bitrate=   1.7kbits/s speed=0.245x elapsed=0:00:12.39    \nframe=   96 fps=7.4 q=41.0 size=       1KiB time=00:00:03.20 bitrate=   1.6kbits/s speed=0.247x elapsed=0:00:12.94    \nframe=   98 fps=7.2 q=42.0 size=       1KiB time=00:00:03.26 bitrate=   1.6kbits/s speed=0.242x elapsed=0:00:13.52    \nframe=  102 fps=7.2 q=41.0 size=       1KiB time=00:00:03.40 bitrate=   1.5kbits/s speed=0.242x elapsed=0:00:14.07    \nframe=  105 fps=7.2 q=41.0 size=       1KiB time=00:00:03.50 bitrate=   1.4kbits/s speed=0.239x elapsed=0:00:14.62    \nframe=  108 fps=7.1 q=43.0 size=       1KiB time=00:00:03.60 bitrate=   1.4kbits/s speed=0.237x elapsed=0:00:15.17    \nframe=  112 fps=7.1 q=42.0 size=       1KiB time=00:00:03.73 bitrate=   1.4kbits/s speed=0.238x elapsed=0:00:15.71    \nframe=  114 fps=7.0 q=42.0 size=       1KiB time=00:00:03.80 bitrate=   1.3kbits/s speed=0.233x elapsed=0:00:16.32    \nframe=  118 fps=7.0 q=41.0 size=       1KiB time=00:00:03.93 bitrate=   1.3kbits/s speed=0.233x elapsed=0:00:16.89    \nframe=  120 fps=6.9 q=41.0 size=       1KiB time=00:00:04.00 bitrate=   1.3kbits/s speed=0.23x elapsed=0:00:17.42    \nframe=  124 fps=6.9 q=40.0 size=       1KiB time=00:00:04.13 bitrate=   1.2kbits/s speed=0.23x elapsed=0:00:18.00    \nframe=  126 fps=6.8 q=41.0 size=       1KiB time=00:00:04.20 bitrate=   1.2kbits/s speed=0.226x elapsed=0:00:18.55    \nframe=  126 fps=6.6 q=41.0 size=       1KiB time=00:00:04.20 bitrate=   1.2kbits/s speed=0.22x elapsed=0:00:19.12    \nframe=  126 fps=6.4 q=41.0 size=       1KiB time=00:00:04.20 bitrate=   1.2kbits/s speed=0.214x elapsed=0:00:19.64    \nframe=  126 fps=6.2 q=41.0 size=       1KiB time=00:00:04.20 bitrate=   1.2kbits/s speed=0.208x elapsed=0:00:20.18    \nframe=  126 fps=6.1 q=41.0 size=       1KiB time=00:00:04.20 bitrate=   1.2kbits/s speed=0.203x elapsed=0:00:20.70    \nframe=  126 fps=5.9 q=41.0 size=       1KiB time=00:00:04.20 bitrate=   1.2kbits/s speed=0.197x elapsed=0:00:21.29    \nframe=  126 fps=5.8 q=41.0 size=       1KiB time=00:00:04.20 bitrate=   1.2kbits/s speed=0.193x elapsed=0:00:21.81    \n[out#0/webm @ 000002659bdc9240] video:1036KiB audio:0KiB subtitle:0KiB other streams:0KiB global headers:0KiB muxing overhead: 0.166339%\nframe=  150 fps=6.7 q=40.0 Lsize=    1037KiB time=00:00:05.00 bitrate=1699.6kbits/s speed=0.225x elapsed=0:00:22.25    \n",
  "seconds": 22.639546632766724,
  "probe_out": {}
}